<?xml version="1.0" standalone="no"?>
<!DOCTYPE svg PUBLIC "-//W3C//DTD SVG 20010904//EN"
 "http://www.w3.org/TR/2001/REC-SVG-20010904/DTD/svg10.dtd">
<svg version="1.0" xmlns="http://www.w3.org/2000/svg"
 width="13205.000000pt" height="4165.000000pt" viewBox="0 0 13205.000000 4165.000000"
 preserveAspectRatio="xMidYMid meet">

<g transform="translate(0.000000,4165.000000) scale(0.100000,-0.100000)"
fill="#ffffff" stroke="none">
<path d="M10 20825 l0 -20825 21070 0 21070 0 0 20825 0 20825 -21070 0
-21070 0 0 -20825z m40620 -5 l0 -19320 -19547 2 -19548 3 -3 19318 -2 19317
19550 0 19550 0 0 -19320z"/>
<path d="M10153 24678 c3 -8507 -2 -7803 53 -8238 111 -887 436 -2070 870
-3166 435 -1100 1015 -1985 1849 -2819 918 -919 2037 -1651 3381 -2210 855
-356 1834 -633 2809 -795 1010 -168 2072 -222 2950 -149 2163 178 4579 1094
6035 2288 435 357 953 870 1351 1341 354 419 730 939 936 1295 276 477 616
1167 788 1595 315 784 673 2104 834 3075 59 354 92 616 111 895 6 95 10 2663
10 7418 l0 7272 -3645 0 -3645 0 2 -1562 3 -1563 29 -53 c70 -126 214 -177
533 -189 150 -5 624 6 1439 35 198 7 214 9 260 33 58 30 106 101 126 188 14
58 15 696 2 849 l-6 72 1201 0 1201 0 0 -6647 c0 -4405 -4 -6697 -10 -6793
-60 -843 -306 -1736 -795 -2875 -260 -607 -400 -840 -790 -1320 -1279 -1573
-2825 -2423 -4970 -2734 -710 -103 -1358 -145 -2240 -146 -492 0 -622 3 -785
18 -1101 102 -2058 373 -3030 858 -648 324 -1167 667 -1715 1134 -204 175
-659 633 -834 840 -506 601 -881 1221 -1163 1925 -411 1025 -694 1965 -798
2645 -59 387 -54 -195 -57 6748 l-3 6347 1250 0 1250 0 0 -102 c0 -57 -5 -229
-11 -383 -19 -469 10 -572 180 -635 99 -38 184 -45 541 -45 405 0 1367 13
1558 21 l132 6 0 1664 0 1664 -3595 0 -3595 0 3 -7802z"/>
<path d="M16320 27614 c-19 -2 -98 -9 -175 -14 -77 -6 -333 -33 -570 -60 -236
-27 -476 -52 -533 -56 l-102 -7 3 -5151 c3 -5626 -1 -5183 57 -5544 70 -437
204 -918 375 -1347 77 -193 241 -537 334 -700 334 -584 792 -1063 1406 -1471
864 -576 1969 -949 3160 -1068 502 -51 1114 -51 1610 0 1713 174 3162 886
4040 1984 266 333 452 653 683 1176 276 625 414 1049 495 1524 l21 125 3 5238
3 5237 -22 0 c-13 0 -536 23 -1163 50 -627 27 -1157 50 -1177 50 l-38 0 -2
-4607 c-4 -5095 2 -4630 -64 -5028 -129 -780 -455 -1627 -803 -2090 -505 -671
-1329 -1085 -2391 -1202 -215 -23 -705 -23 -920 0 -635 70 -1175 233 -1647
498 -323 181 -613 415 -825 669 -280 334 -532 866 -642 1355 -57 253 -83 447
-126 955 -17 195 -39 438 -51 540 -23 213 -21 268 21 530 16 96 35 222 42 280
11 85 13 838 13 3985 l0 3880 -22 42 c-66 123 -221 195 -475 223 -88 9 -431
12 -518 4z"/>
<path d="M94270 35769 c-1239 -54 -2428 -353 -3471 -874 -359 -180 -487 -255
-844 -498 -244 -167 -339 -238 -465 -352 -47 -42 -130 -111 -185 -153 -411
-314 -536 -431 -665 -622 -101 -150 -142 -203 -269 -340 -138 -150 -212 -238
-314 -374 -594 -797 -1035 -1918 -1182 -3006 -55 -412 -61 -948 -15 -1425 63
-644 191 -1259 375 -1793 149 -433 295 -712 653 -1243 823 -1223 1669 -1977
2919 -2603 378 -189 722 -335 1053 -447 726 -246 1359 -379 2120 -445 252 -21
903 -30 1167 -15 1134 64 2213 331 3254 804 595 271 922 470 1389 848 739 597
1271 1168 1726 1854 591 892 929 1835 1041 2905 25 239 25 934 0 1180 -87 861
-308 1659 -689 2490 -412 900 -965 1619 -1738 2262 -1508 1255 -3686 1941
-5860 1847z m995 -2773 c714 -79 1332 -250 1900 -525 472 -228 837 -485 1184
-832 706 -705 1113 -1503 1238 -2429 28 -210 26 -766 -5 -981 -69 -489 -190
-889 -402 -1327 -616 -1271 -1794 -2204 -3115 -2467 -383 -76 -601 -89 -1427
-82 -728 6 -873 17 -1243 94 -444 92 -1045 337 -1441 585 -461 289 -877 638
-1143 956 -318 382 -583 871 -752 1386 -303 922 -288 1956 38 2806 155 404
332 699 624 1040 131 154 227 280 264 348 29 54 76 95 335 292 74 57 185 143
245 190 210 167 509 351 769 476 553 263 1175 423 1886 483 172 15 870 6 1045
-13z"/>
<path d="M105535 35624 c-198 -6 -482 -12 -631 -13 -149 -1 -292 -4 -318 -7
l-46 -7 0 -6923 0 -6924 1455 0 1455 0 0 123 c0 67 5 613 10 1212 10 1116 16
1572 50 3585 19 1113 34 2287 48 3750 l7 695 1610 -2133 c2148 -2846 2116
-2803 2446 -3224 159 -202 515 -668 791 -1035 276 -368 767 -1021 1091 -1453
325 -432 613 -812 641 -845 339 -401 603 -575 991 -655 242 -50 563 -56 1618
-31 l597 14 0 6924 0 6923 -1510 0 -1510 0 0 -4372 0 -4372 -37 44 c-21 24
-1396 1833 -3056 4019 -2349 3094 -3040 3998 -3115 4075 -360 366 -727 549
-1237 615 -254 33 -694 38 -1350 15z"/>
<path d="M66650 35610 c-305 -4 -556 -7 -557 -8 -2 -1 -3 -3118 -3 -6927 l0
-6925 1515 0 1515 0 2 4681 3 4681 3230 -4253 c1776 -2339 3268 -4301 3315
-4359 389 -489 653 -674 1059 -744 196 -33 442 -40 975 -28 276 7 660 15 854
19 l352 6 0 6924 0 6923 -1460 0 -1460 0 -2 -4422 -3 -4421 -2500 3304 c-1375
1817 -2689 3553 -2919 3859 -231 305 -479 630 -553 722 -551 693 -831 876
-1458 955 -143 18 -1021 24 -1905 13z"/>
<path d="M51093 31243 c3 -4797 -1 -4426 63 -4873 145 -1017 535 -1904 1172
-2670 123 -148 484 -508 632 -631 962 -799 2166 -1290 3540 -1443 280 -31 473
-40 845 -40 586 0 1063 46 1605 154 1257 249 2332 768 3063 1479 176 172 291
304 480 556 572 763 897 1454 1031 2195 65 363 60 -83 63 5013 l3 4617 -1455
0 -1455 0 0 -4182 c0 -2729 -4 -4239 -10 -4343 -55 -857 -423 -1555 -1077
-2043 -929 -694 -2311 -883 -3508 -480 -660 222 -1201 618 -1540 1128 -223
336 -344 664 -412 1120 -16 107 -17 412 -20 4458 l-3 4342 -1510 0 -1510 0 3
-4357z"/>
<path d="M81930 28675 l0 -6925 1423 2 c1344 3 1424 4 1462 21 54 24 84 54
109 107 l21 45 3 6725 c2 5969 0 6731 -13 6783 -20 77 -44 110 -103 139 l-47
23 -1427 3 -1428 2 0 -6925z"/>
<path d="M58620 17680 c-749 -14 -1175 -59 -1681 -175 -562 -129 -1379 -433
-1974 -735 -698 -354 -1246 -761 -1786 -1325 -736 -769 -1253 -1521 -1593
-2318 -262 -612 -410 -1203 -472 -1887 -24 -256 -24 -795 0 -1050 97 -1049
398 -2088 817 -2816 329 -574 858 -1262 1289 -1677 148 -143 343 -305 585
-487 1672 -1256 3743 -1845 5825 -1655 1413 129 2790 615 4003 1411 204 134
277 188 428 319 68 59 201 164 294 234 196 147 274 216 354 315 70 87 131 173
130 184 0 4 -244 233 -542 510 -338 314 -565 516 -602 539 -534 319 -1046 357
-1649 122 -72 -29 -327 -151 -566 -272 -572 -289 -631 -315 -971 -412 -1000
-287 -2033 -306 -2998 -55 -1086 283 -2026 911 -2623 1752 -403 569 -661 1246
-742 1947 -100 860 35 1627 413 2356 529 1021 1487 1826 2641 2219 567 194
1081 267 1770 252 1142 -25 1526 -125 2480 -641 404 -219 499 -261 713 -315
171 -43 281 -53 500 -47 223 6 341 27 565 102 524 174 1084 613 1466 1149 l48
66 -64 85 c-221 294 -540 580 -978 877 -987 670 -2369 1213 -3517 1383 -324
48 -768 61 -1563 45z"/>
<path d="M70857 17493 c-70 -211 -383 -904 -895 -1978 -591 -1242 -1316 -2727
-2947 -6040 -566 -1149 -831 -1692 -1258 -2575 -175 -360 -591 -1220 -926
-1910 l-608 -1255 51 -7 c28 -4 521 -8 1096 -10 1120 -3 1165 -2 1437 48 312
57 530 163 730 357 218 211 371 442 650 981 74 143 177 337 228 430 239 441
344 697 377 920 l12 86 3336 -2 3335 -3 302 -605 c166 -333 358 -733 428 -890
143 -322 222 -479 300 -595 269 -405 694 -633 1327 -715 284 -36 600 -45 1103
-30 248 7 597 15 777 19 179 3 329 9 333 13 23 22 -172 490 -452 1088 -247
526 -465 971 -1099 2240 -471 943 -1270 2585 -2879 5913 l-2228 4607 -1251 0
-1251 -1 -28 -86z m1422 -4312 c101 -304 273 -664 721 -1511 102 -193 385
-772 695 -1425 l524 -1100 -2026 -3 c-1115 -1 -2028 0 -2030 2 -2 2 25 63 61
135 79 157 121 247 516 1106 760 1655 1083 2312 1323 2695 56 90 166 235 172
228 1 -2 21 -59 44 -127z"/>
<path d="M80957 17569 c-82 -19 -132 -64 -158 -144 -12 -33 -14 -1178 -17
-6867 l-2 -6828 1510 0 1510 0 0 2447 0 2446 428 -6 c235 -4 659 -12 942 -18
735 -16 1432 -5 1940 31 1036 74 1883 273 2546 599 201 99 293 150 471 267
489 322 867 733 1231 1340 387 645 614 1307 678 1984 22 225 14 661 -15 875
-163 1194 -846 2240 -1936 2960 -811 537 -1785 848 -2865 915 -208 13 -6208
12 -6263 -1z m5608 -2669 c842 -39 1356 -166 1746 -431 462 -316 699 -870 699
-1636 0 -283 -20 -349 -178 -585 -232 -346 -458 -547 -805 -713 -221 -106
-449 -170 -696 -195 -67 -6 -699 -10 -1817 -10 l-1714 0 0 1769 0 1768 328 7
c449 9 1250 26 1347 29 229 8 898 6 1090 -3z"/>
<path d="M93180 10655 l0 -6925 1510 0 1510 0 -2 6843 c-3 6437 -4 6844 -20
6878 -10 20 -31 49 -47 65 -67 63 30 59 -1528 62 l-1423 2 0 -6925z"/>
<path d="M97450 16225 l0 -1355 2240 0 2240 0 0 -5570 0 -5570 1510 0 1510 0
0 5570 0 5570 2190 0 2190 0 0 1355 0 1355 -5940 0 -5940 0 0 -1355z"/>
<path d="M112288 16203 c-567 -1135 -711 -1433 -818 -1688 -72 -170 -169 -386
-214 -480 -46 -93 -726 -1479 -1513 -3080 -787 -1600 -1460 -2981 -1497 -3067
-36 -87 -96 -229 -133 -315 -36 -87 -442 -934 -901 -1883 -666 -1376 -842
-1748 -869 -1838 -20 -62 -34 -115 -31 -117 10 -10 2076 -5 2183 5 408 38 700
128 943 292 101 68 267 230 352 343 160 213 288 453 581 1090 106 231 266 567
356 748 l163 327 3283 0 3282 0 49 -97 c27 -54 143 -296 258 -538 499 -1046
754 -1515 924 -1694 157 -167 430 -311 742 -392 365 -94 775 -126 1472 -114
878 14 1118 20 1125 27 4 4 -1281 2699 -2855 5990 -2539 5308 -3451 7198
-3716 7703 l-79 150 -1200 3 -1200 2 -687 -1377z m1975 -2994 c58 -40 62 -47
117 -209 92 -269 205 -513 999 -2151 451 -933 821 -1699 821 -1703 0 -3 -911
-6 -2025 -6 -1409 0 -2025 3 -2025 11 0 5 29 65 64 132 87 165 238 483 483
1022 242 532 436 929 672 1375 425 802 666 1317 737 1573 l16 58 46 -34 c26
-18 69 -49 95 -68z"/>
<path d="M122870 10655 l0 -6925 4585 0 4585 0 -2 1212 c-3 1211 -3 1213 -24
1258 -25 53 -55 83 -109 107 -38 17 -179 18 -3077 21 l-3038 2 0 5625 0 5625
-1460 0 -1460 0 0 -6925z"/>
</g>
</svg>
